# xmcd
#
# Track frame offsets:
#	150
#	19003
#	36399
#	51360
#	68761
#	94372
#	115759
#	133727
#	153572
#	169170
#	182031
#	199461
#	220002
#	241201
#	257575
#	271987
#	294929
#
# Disc length: 4146 seconds
#
# Revision: 2
# Processed by: cddbd v1.5.2PL0 Copyright (c) Steve Scherf et al.
# Submitted via: EZCDAudioConverter 4.0.4.1
#
DISCID=fc103011
DTITLE=Михаил Шуфутинский - Побеседуем за жизнь
DYEAR=2003
DGENRE=Шансон
TTITLE0=Такси
TTITLE1=Алёнка
TTITLE2=Самогончик
TTITLE3=Наколочка
TTITLE4=Душа болит
TTITLE5=Поехали, извозчик, на Арбат
TTITLE6=Вязаный жакет
TTITLE7=Наливай, поговорим
TTITLE8=Поворую - перестану
TTITLE9=Налётчики
TTITLE10=Сёма
TTITLE11=Письмо к матери (Конвой)
TTITLE12=Я поеду на юг
TTITLE13=Гуляй, душа
TTITLE14=Шарики
TTITLE15=Свечи
TTITLE16=Пойду однажды по Руси
EXTD=
EXTT0=
EXTT1=
EXTT2=
EXTT3=
EXTT4=
EXTT5=
EXTT6=
EXTT7=
EXTT8=
EXTT9=
EXTT10=
EXTT11=
EXTT12=
EXTT13=
EXTT14=
EXTT15=
EXTT16=
PLAYORDER=
